<svg xmlns="http://www.w3.org/2000/svg" viewBox="0 0 646.18 969"><defs><style>.cls-1{fill:blue;}</style></defs><g id="Layer_1" data-name="Layer 1"><path class="cls-1" d="M913.11,591.29" transform="translate(-582.24 -78)"/><polyline class="cls-1" points="464.36 389 505.79 441.94 498.09 452.71 471.26 490.27 464.36 481.98 464.36 389"/><polyline class="cls-1" points="551.82 531.7 498.09 452.71 471.26 490.27 501.18 547.81"/><polyline class="cls-1" points="489.68 551.37 489.68 593.84 589.71 572.6 573.69 522.49"/><polygon class="cls-1" points="508.77 589.79 508.77 702.11 618.56 683.6 576.62 575.38 508.77 589.79"/><polygon class="cls-1" points="506.42 702.11 494.84 702.11 494.84 729.25 641.58 731.94 636.98 679 597.62 687.27 506.42 702.11"/><path class="cls-1" d="M1274.46,729.38" transform="translate(-582.24 -78)"/><polygon class="cls-1" points="551.82 728.33 535.71 757.25 602.45 752 594 727.33 551.82 728.33"/><polyline class="cls-1" points="179.76 389 135.76 441.94 143.93 452.71 172.42 490.27 179.76 481.98 179.76 389"/><polyline class="cls-1" points="89.25 526.82 142.98 447.83 169.81 485.39 139.88 542.93"/><polyline class="cls-1" points="151.34 545.51 151.34 587.99 51.31 566.75 67.33 516.64"/><polygon class="cls-1" points="132.93 582.21 132.93 694.53 23.14 676.03 65.08 567.81 132.93 582.21"/><path class="cls-1" d="M717.4,770.81H729V798c-44.29,1.79-78.14,2.48-95.28,2.65-18,.19-35.91.13-35.91.13-6.28,0-11.6-.06-15.55-.09q2.31-26.48,4.61-52.94L626.2,756Z" transform="translate(-582.24 -78)"/><polygon class="cls-1" points="96.16 718.48 112.27 747.4 45.52 742.14 53.97 717.48 96.16 718.48"/><path class="cls-1" d="M903.94,78c-22.38-.7-44.83,17.75-43.79,39.92,1,20.93,22.44,35.92,42.5,36.07,19.22.14,40.32-13.32,42.5-33.49C947.53,98.53,926.31,78.72,903.94,78Z" transform="translate(-582.24 -78)"/><path class="cls-1" d="M595.49,803" transform="translate(-582.24 -78)"/><path class="cls-1" d="M1126.91,828.35c-8.15,8.29-10.63,16-11.51,20.71s-.57,8.42,0,16.12c1.2,16,3.76,17.77,2.3,23-3,10.64-18.18,19.9-27.61,16.11-8.3-3.33-9.69-15.79-11.51-32.22a122.3,122.3,0,0,1,2.3-39.13,134,134,0,0,1,9.21-27.62h46.27" transform="translate(-582.24 -78)"/><path class="cls-1" d="M1170.55,826.91c9.63,8.6,12.56,16.64,13.6,21.49s.68,8.73,0,16.71c-1.41,16.56-4.44,18.45-2.72,23.88,3.49,11,21.49,20.65,32.63,16.72,9.81-3.46,11.45-16.38,13.6-33.43a111.68,111.68,0,0,0-2.72-40.59A127.51,127.51,0,0,0,1214.06,803h-54.68" transform="translate(-582.24 -78)"/></g><g id="Layer_5" data-name="Layer 5"><polygon class="cls-1" points="185.87 670 185.87 908.13 302.48 908.13 287.14 796.62 295.97 670 185.87 670"/><polygon class="cls-1" points="349.36 674.4 353.88 805.59 346.98 918.37 464.36 921.8 467.21 791.26 452.89 674.4 349.36 674.4"/><polygon class="cls-1" points="185.87 908.13 169.18 908.13 165.15 936.78 177.45 936.78 311.22 936.78 314.18 908.13 185.87 908.13"/><polygon class="cls-1" points="165.15 945.17 177.45 936.78 302.48 936.78 312.11 945.17 310.15 964.4 167.45 966.7 165.15 945.17"/><polygon class="cls-1" points="351.06 918.49 346.98 939.85 351.88 940 478.17 943.68 480.47 927.57 460.52 921.69 351.06 918.49"/><polygon class="cls-1" points="343.53 951.74 351.88 940 473.59 943.55 485.87 951.74 485.87 962.97 480.47 967.99 360.79 969 346.98 965.2 343.53 951.74"/></g><g id="Layer_4" data-name="Layer 4"><path class="cls-1" d="M634.62,823.75" transform="translate(-582.24 -78)"/><path class="cls-1" d="M632.32,823.75c-8.15,8.29-10.63,16-11.51,20.71s-.58,8.42,0,16.11c1.19,16,3.76,17.78,2.3,23-3,10.63-18.18,19.9-27.62,16.11-8.3-3.33-9.68-15.79-11.51-32.22a122.41,122.41,0,0,1,2.31-39.13,133.86,133.86,0,0,1,9.2-27.62h46.28" transform="translate(-582.24 -78)"/><path class="cls-1" d="M632.32,812.63" transform="translate(-582.24 -78)"/><path class="cls-1" d="M678,820c9.63,8.6,12.56,16.64,13.6,21.49s.68,8.73,0,16.71c-1.41,16.55-4.44,18.44-2.72,23.88,3.49,11,21.49,20.64,32.64,16.71,9.8-3.45,11.44-16.38,13.59-33.43a111.69,111.69,0,0,0-2.72-40.59,128.12,128.12,0,0,0-10.87-28.65H666.84" transform="translate(-582.24 -78)"/></g><g id="Layer_3" data-name="Layer 3"><path class="cls-1" d="M841.76,223c-.69-4.09,4.44-13.21,4.78-13.81a43.73,43.73,0,0,1,7.17-9.2,48.8,48.8,0,0,1,19.11-11.51c1.54-.5,6-1.86,19.11-2.3,13.9-.47,23.48-.8,35.84,2.3a69.39,69.39,0,0,1,21.5,9.21A44.07,44.07,0,0,1,959,206s4.65,5.39,6.56,11.05c.23.69.43,1.38.43,1.38a19.07,19.07,0,0,1,1,5.57C965.34,237.49,844.71,240.46,841.76,223Z" transform="translate(-582.24 -78)"/><path class="cls-1" d="M966,225" transform="translate(-582.24 -78)"/><path class="cls-1" d="M966,225" transform="translate(-582.24 -78)"/><path class="cls-1" d="M965,225" transform="translate(-582.24 -78)"/><path class="cls-1" d="M979,206" transform="translate(-582.24 -78)"/><path class="cls-1" d="M957,189" transform="translate(-582.24 -78)"/></g><g id="Layer_2" data-name="Layer 2"><polygon class="cls-1" points="464.36 389 464.36 674.4 178.96 673.4 178.96 389 464.36 389"/><polyline class="cls-1" points="259.25 389 266.42 377.49 377.83 377.49 383.87 389"/><polyline class="cls-1" points="259.25 360.65 259.25 377.49 383.87 377.49 383.87 360.65"/><path class="cls-1" d="M761.21,223v46.4H733.4l.19,126.3h27.62v43h277.57l.92-49.9h20.71V264.28l-20.71.18L1040,223Z" transform="translate(-582.24 -78)"/><polygon class="cls-1" points="303.85 59.88 335.06 59.88 335.06 110.51 303.85 110.51 303.85 86.91 303.85 59.88"/><path class="cls-1" d="M1061,224" transform="translate(-582.24 -78)"/></g></svg>